<?xml version="1.0" standalone="no"?>
<!DOCTYPE svg PUBLIC "-//W3C//DTD SVG 20010904//EN"
 "http://www.w3.org/TR/2001/REC-SVG-20010904/DTD/svg10.dtd">
<svg version="1.0" xmlns="http://www.w3.org/2000/svg"
 width="1024.000000pt" height="1022.000000pt" viewBox="0 0 1024.000000 1022.000000"
 preserveAspectRatio="xMidYMid meet">

<g transform="translate(0.000000,1022.000000) scale(0.100000,-0.100000)"
fill="#000000" stroke="none">
<path d="M4885 9974 c-627 -51 -1158 -217 -1665 -522 -270 -162 -461 -312
-701 -552 -243 -241 -435 -489 -593 -764 -403 -700 -565 -1516 -461 -2322 61
-470 227 -961 453 -1341 39 -65 77 -126 84 -136 13 -18 33 -3 294 204 153 123
322 266 374 319 170 169 279 337 341 520 27 83 33 116 40 255 12 215 34 374
74 530 206 803 809 1577 1665 2138 527 344 1269 667 1890 821 205 50 436 93
565 102 65 5 83 10 75 19 -6 7 -63 48 -128 92 -500 340 -1044 544 -1652 619
-119 15 -549 26 -655 18z"/>
<path d="M7710 8629 c-681 -56 -1364 -264 -2165 -662 -235 -117 -242 -121
-321 -201 -111 -112 -139 -169 -139 -293 0 -77 3 -96 21 -119 38 -51 70 -68
139 -72 92 -6 141 10 290 90 955 520 1819 788 2553 792 157 1 201 4 197 13
-10 29 -162 255 -238 356 l-81 107 -75 -1 c-42 -1 -123 -6 -181 -10z"/>
<path d="M8275 7609 c-196 -5 -328 -13 -440 -28 -613 -82 -1194 -275 -1889
-629 -252 -129 -314 -173 -352 -257 -29 -62 -30 -116 -3 -171 45 -95 118 -132
236 -121 60 6 95 20 317 131 673 334 1223 513 1824 593 94 12 206 17 429 17
215 1 303 4 303 12 0 34 -132 457 -143 459 -1 0 -128 -3 -282 -6z"/>
<path d="M8270 6573 c-600 -45 -1270 -247 -1948 -587 -126 -63 -181 -107 -211
-170 -24 -49 -27 -125 -7 -164 56 -107 219 -165 392 -141 91 12 143 31 364
131 602 274 1185 420 1736 435 l201 6 6 108 c6 103 2 254 -9 347 l-5 42 -237
-2 c-130 -1 -257 -3 -282 -5z"/>
<path d="M8605 5389 c-576 -71 -1213 -255 -1788 -518 -207 -94 -589 -248 -821
-331 -898 -319 -1595 -399 -2056 -234 -219 78 -211 76 -315 76 -70 0 -124 -6
-180 -21 -103 -27 -296 -124 -408 -204 -77 -56 -372 -304 -509 -429 l-48 -43
1316 -1715 c724 -943 1319 -1715 1324 -1715 4 0 698 900 1542 2001 1186 1546
1552 2031 1615 2135 96 159 173 312 242 475 86 207 190 535 167 533 -6 -1 -42
-5 -81 -10z"/>
</g>
</svg>
