<?xml version='1.0' encoding='iso-8859-1'?>
<svg version="1.1" xmlns="http://www.w3.org/2000/svg" viewBox="0 0 60.028 60.028" xmlns:xlink="http://www.w3.org/1999/xlink" enable-background="new 0 0 60.028 60.028">
  <g>
    <g>
      <path d="m58.476,57.163l-9.524-5.693v-45.456c0-0.553-0.448-1-1-1s-1,0.447-1,1v45.456l-9.524,5.693c-0.464,0.276-0.623,0.891-0.355,1.371 0.268,0.48 0.861,0.644 1.325,0.367l9.554-5.711 9.554,5.711c0.464,0.277 1.057,0.113 1.325-0.367 0.268-0.48 0.109-1.094-0.355-1.371z"/>
    </g>
  </g>
  <g>
    <g>
      <path fill-rule="evenodd" d="m36.953,28.014h-25c-0.552,0-1,0.447-1,1l-2,10c0,0.553 0.448,1 1,1h25c0.552,0 1-0.447 1-1l2-10c0-0.553-0.448-1-1-1zm-3,10h-22.526l1.525-8h22.525l-1.524,8zm-6,3c-0.265,0-0.502,0.107-0.68,0.274l-.016-.016c-1.488,1.09-3.318,1.741-5.304,1.741-1.984,0-3.813-0.65-5.301-1.738l-.015,.016c-0.179-0.17-0.418-0.277-0.684-0.277-0.552,0-1,0.447-1,1 0,0.266 0.107,0.503 0.276,0.683l-.006,.006c0.005,0.004 0.012,0.007 0.017,0.011 0.097,0.099 0.215,0.175 0.345,0.227 1.8,1.288 3.985,2.074 6.367,2.074s4.566-0.786 6.367-2.074c0.131-0.052 0.249-0.128 0.346-0.227 0.007-0.006 0.014-0.009 0.021-0.014l-.007-.007c0.166-0.179 0.273-0.415 0.273-0.679 0.001-0.553-0.447-1-0.999-1zm-10-14c0.287,0 0.542-0.124 0.724-0.317l.022,.021c1.479-1.068 3.291-1.704 5.255-1.704 1.965,0 3.778,0.638 5.258,1.706l.021-.02c0.182,0.191 0.436,0.313 0.721,0.313 0.552,0 1-0.447 1-1 0-0.421-0.261-0.777-0.628-0.925-1.801-1.29-3.988-2.075-6.372-2.075-2.384,0-4.571,0.785-6.372,2.075-0.367,0.148-0.628,0.504-0.628,0.925-0.001,0.554 0.446,1.001 0.999,1.001z"/>
    </g>
  </g>
  <g>
    <g>
      <path d="m60.015,59.014l-10.981-58.09c-0.033-0.223-0.14-0.423-0.296-0.576-0.183-0.202-0.441-0.334-0.736-0.334h-43.045c-0.553,0-1.001,0.447-1.001,1v9c0,0.553 0.448,1 1.001,1h36.038c0.553,0 1.001-0.447 1.001-1 0-0.553-0.448-1-1.001-1h-35.036v-7h40.895l-10.854,56h-33.81l8.381-44h-0.023c0-0.553-0.448-1-1.001-1-0.553,0-1.001,0.447-1.001,1h-0.012l-8.495,44.6-.039,.634c0.108,0.436 0.484,0.766 0.954,0.766h58.061c0.476,0 0.856-0.339 0.957-0.784 0.05-0.004 0.071-0.056 0.043-0.216zm-21.976-1l9.997-51.583 9.734,51.583h-19.731z"/>
    </g>
  </g>
</svg>
